<svg width="31" height="30" viewBox="0 0 31 30" fill="#18a4ea" xmlns="http://www.w3.org/2000/svg">
  <path d="M8.74854 21.6655C13.4053 26.3223 19.061 29.9155 23.6855 29.9155C25.7642 29.9155 27.585 29.1904 29.0513 27.5791C29.9053 26.6284 30.437 25.5166 30.437 24.4209C30.437 23.6152 30.1309 22.8418 29.3735 22.2939L24.4268 18.7812C23.6694 18.2656 23.041 18.0078 22.4609 18.0078C21.7358 18.0078 21.0752 18.4268 20.334 19.1519L19.1899 20.2798C19.0127 20.457 18.7871 20.5376 18.5776 20.5376C18.3359 20.5376 18.0942 20.4409 17.9331 20.3604C16.9341 19.8286 15.2261 18.3623 13.6309 16.7832C12.0518 15.2041 10.5854 13.4961 10.0698 12.4971C9.98926 12.3198 9.89258 12.0942 9.89258 11.8525C9.89258 11.6431 9.95703 11.4336 10.1343 11.2563L11.2783 10.0801C11.9873 9.33887 12.4224 8.69434 12.4224 7.95312C12.4224 7.37305 12.1484 6.74463 11.6167 5.9873L8.15234 1.10498C7.58838 0.331543 6.79883 -0.00683594 5.92871 -0.00683594C4.86523 -0.00683594 3.76953 0.476562 2.81885 1.39502C1.25586 2.89355 0.562988 4.74658 0.562988 6.79297C0.562988 11.4175 4.0918 17.0249 8.74854 21.6655Z" fill="#18a4ea"/>
</svg>
